<?xml version="1.0" encoding="utf-8"?>
<!-- Generator: Adobe Illustrator 23.0.0, SVG Export Plug-In . SVG Version: 6.00 Build 0)  -->
<svg version="1.1" xmlns="http://www.w3.org/2000/svg" xmlns:xlink="http://www.w3.org/1999/xlink" x="0px" y="0px"
	 viewBox="0 0 196.3 196.3" style="enable-background:new 0 0 196.3 196.3;" xml:space="preserve">
<style type="text/css">
	.st0{fill:url(#SVGID_1_);stroke:#AA1CD9;stroke-miterlimit:10;}
	.st1{fill:url(#SVGID_2_);}
	.st2{fill:#FFFFFF;}
	.st3{display:none;}
</style>
<g id="Шар_2">
	<radialGradient id="SVGID_1_" cx="335.992" cy="213.6569" r="0" gradientUnits="userSpaceOnUse">
		<stop  offset="0.3754" style="stop-color:#FFB829"/>
		<stop  offset="1" style="stop-color:#AA1CD9"/>
	</radialGradient>
	<path class="st0" d="M336,213.7"/>
	<radialGradient id="SVGID_2_" cx="0.8723" cy="0.2766" r="275.1407" fx="-75.0797" fy="85.1558" gradientUnits="userSpaceOnUse">
		<stop  offset="0" style="stop-color:#FFA100"/>
		<stop  offset="1" style="stop-color:#CC48E0"/>
	</radialGradient>
	<path class="st1" d="M196.2,43.6c-0.2-2.4-0.8-4.9-0.8-7.3c0,0,0-0.1,0-0.1c0-0.2-0.1-0.5-0.1-0.8c0,0,0,0,0,0
		c-0.1-1.6-0.7-3.2-1.1-4.8c-0.4-1.1-0.8-2.1-1.1-3.1c0-0.1,0-0.2,0-0.3c-1.1-2-2.1-4.1-3.3-6c-0.8-1.2-1.9-2.5-2.4-3.9
		c-0.6-0.6-1-1.3-1.6-1.9c-0.7-0.7-1.4-1.4-2.1-2.1c-1.1-1.1-2.5-2-3.4-3.3c-0.1,0-0.1-0.1-0.2-0.1c0-0.1-0.1-0.1-0.2-0.2
		c0,0,0,0-0.1,0c-0.1,0-0.1,0-0.2-0.1c-2.8-2.1-5.9-3.9-9.1-5.3c-2.8-1.2-5.8-1.7-8.6-2.8c-2.4-0.5-4.9-0.4-7.3-1
		c-1.5-0.2-3.1-0.3-4.6-0.4c-0.1,0-0.1,0.1-0.2,0.1c-0.3,0-0.5,0-0.7,0c-0.1,0-0.1,0.1-0.2,0.1c-0.3,0-0.4,0-0.6,0c0,0-0.1,0-0.1,0
		c-1.2,0.1-2.5-0.1-3.7-0.2H50.2c-0.9,0.1-1.7,0.2-2.6,0.3c-0.1,0-0.2,0-0.3-0.1c-2.5,0.2-5,0.4-7.5,0.6c-3,0.3-5.9,1-8.9,1.5
		c0,0-0.1,0-0.1,0c0,0.1-0.1,0.2-0.3,0.3c-3,0.8-6.3,2.4-9,3.8c-1.2,0.6-2.4,1.4-3.6,2.2c-0.2,0.2-0.4,0.3-0.6,0.5
		c-0.2,0.1-0.3,0.2-0.4,0.3c-0.3,0.3-0.7,0.6-1,0.8c-0.1,0.1-0.3,0.3-0.4,0.4c-0.1,0.1-0.2,0.1-0.3,0.1c-0.3,0.3-0.6,0.6-1,0.9
		c-0.2,0.2-0.4,0.4-0.6,0.6c0,0-0.1,0-0.1,0c0,0,0,0.1,0,0.1c-0.5,1-1.6,1.6-2.3,2.4c-1,1.2-2.1,2.4-2.9,3.6c0,0,0,0,0,0
		c-1.4,2.3-2.7,4.7-4,7.1C4.1,25.8,4,26,3.9,26.2C3.8,27.2,3.3,28,3,28.9c-0.5,1.5-0.8,3.1-1.2,4.6C1,37,0.8,40.5,0.3,44.1
		c0,0.1,0,0.2-0.1,0.2v110.2c0,0.1,0,0.1,0,0.2c0,0,0,0,0,0.1c0,0.1,0,0.2,0.1,0.3c0.1,0.1,0.1,0.2,0.1,0.3c0,1,0.1,2,0.3,3
		c0.1,0.7,0.2,1.4,0.3,2.1c0.2,0.6,0.3,1.1,0.4,1.7c0.2,0.5,0.3,0.9,0.4,1.4c0.3,0.9,0.5,1.9,0.6,2.8c0,0,0.1,0.1,0.1,0.1
		c0.1,0.4,0.2,0.7,0.3,1.1c0,0,0,0.1,0.1,0.1c0.2,0.7,0.6,1.3,0.8,2c0,0,0,0,0,0c0.2,0.3,0.3,0.6,0.4,0.9c0.1,0.1,0.2,0.2,0.2,0.4
		c0,0.1,0,0.2,0.1,0.3c0.4,0.5,0.6,1.1,0.9,1.6c0.4,0.7,0.9,1.4,1.1,2.2c0.7,1,1.4,2,2,3.1c0.3,0.3,0.5,0.7,0.8,1
		c0.4,0.6,0.8,1.2,1.3,1.7c0.4,0.4,0.7,1,1.1,1.3c0,0,0,0,0,0c1.4,1.2,2.6,2.6,4,3.8c1.7,1.5,3.5,2.5,5.4,3.7c0.1,0,0.1,0.1,0.1,0.1
		c1.8,1,3.7,1.8,5.6,2.7c1,0.3,2,0.7,3,1c2.3,0.7,4.7,1.3,7.1,1.6c3.7,0.5,7.6,1.1,11.4,0.9c0.2,0,0.3,0.1,0.4,0.2h98.2
		c1.1-0.4,2.9-0.2,3.9-0.3c3.7-0.1,7.4-0.6,11-1.2c0.2-0.1,0.4-0.1,0.6-0.2c1.1-0.7,2.8-0.8,3.9-1.1c2.5-0.8,5.1-1.7,7.5-2.9
		c0.2-0.1,0.5-0.3,0.7-0.4c0.1,0,0.1-0.1,0.2-0.1c0.6-0.5,1.5-0.9,2.2-1.4c0.9-0.6,1.8-1.2,2.7-1.9c0.1-0.1,0.2-0.1,0.2-0.1
		c0.4-0.4,0.9-0.8,1.3-1.1c0.3-0.2,0.5-0.4,0.8-0.6c0,0,0,0,0,0c1.3-1.4,2.8-2.6,4-4.1c0-0.1,0.1-0.1,0.2-0.1c0,0,0,0,0-0.1
		c1.1-1.3,2.1-2.6,3-4c0,0,0,0,0,0c0,0,0-0.1,0.1-0.1c0.5-1.1,1.3-2,1.7-3.1c0-0.1,0.1-0.2,0.2-0.3c0.7-1.3,1.3-2.6,1.8-4
		c0,0,0,0,0,0c0.3-0.8,0.5-1.7,0.8-2.5c0.2-0.6,0.3-1.3,0.6-1.9c0,0,0,0,0.1-0.1c0,0,0-0.1,0-0.1c0.1-0.4,0.2-0.8,0.4-1.3
		c0.1-0.3,0.1-0.5,0.2-0.8c0,0,0-0.1,0-0.1c0-0.2,0-0.3,0.1-0.4c0-0.5,0.2-1,0.2-1.5c0-0.1,0-0.1,0.1-0.2c0,0,0,0,0,0
		c0.1-0.4,0.2-0.7,0.2-1.1c0,0,0,0,0,0c0.1-0.6,0.1-1.2,0.1-1.8c0.1-1,0.2-2,0.2-3c0,0,0,0,0,0c0,0,0-0.1,0-0.1
		c0.2-0.7,0.3-1.4,0.3-2.1c0-0.1,0-0.1,0-0.2c0-0.9,0.1-1.9,0.3-2.8c0-0.1,0.1-0.2,0.2-0.3V46.8C196.3,45.8,196.2,44.7,196.2,43.6z"
		/>
</g>
<g id="Capa_1">
	<g>
		<path class="st2" d="M35.6,155.1c-26.6-39.2-7.8-69.8-7.8-69.8C23.5,84,9.5,93.1,9.5,93.1C17.4,64.4,60.4,40,60.4,40
			c-4.8-1.8-18.3,1.7-18.3,1.7c35.2-33.9,78.3-21.3,78.3-21.3C121.8,13,143.1,0,143.1,0c-2.2,2.2-3.1,13.9-3.1,13.9
			c2.2-3.9,9.1-7.8,9.1-7.8c-3.9,9.1,0,28.7,0,28.7c11.3,11.3,23.9,50.5,23.9,50.5l4.8,7c6.1,8.7,3.9,22.4-2.2,25.7
			c-22.6,12.2-24.8-10-24.8-10c-18.7-2.2-32.6-23.1-32.6-23.1c-25.2,13.1-11.2,49.9-0.3,64c14,18.1,3.7,47.4,3.7,47.4
			S61.8,193.8,35.6,155.1z"/>
	</g>
</g>
<g id="Шар_3" class="st3">
	
		<image style="display:inline;overflow:visible;" width="1023" height="1024" xlink:href="React instagram/logo.png"  transform="matrix(0.1919 0 0 0.1917 0 0)">
	</image>
</g>
</svg>
